<svg width="50" height="50" viewBox="0 0 50 50" fill="none" xmlns="http://www.w3.org/2000/svg">
<path d="M49.5015 19.9631C46.4411 17.9498 42.7087 17.6638 39.5176 19.198C37.9279 19.9622 36.609 21.1145 35.6419 22.5283C35.3398 21.9745 34.9841 21.4479 34.5739 20.96C34.3137 20.6504 33.8516 20.6102 33.542 20.8706C33.2323 21.1309 33.1924 21.5928 33.4526 21.9025C34.582 23.2461 35.2411 24.9263 35.3344 26.6743C34.809 26.5844 34.2693 26.537 33.7188 26.537C30.2962 26.537 27.2894 28.3471 25.6021 31.0595C24.2 28.8053 21.8861 27.1745 19.1796 26.6878C19.3968 22.42 22.9373 19.0147 27.2581 19.0147C28.5759 19.0147 29.8327 19.3219 30.9938 19.9276C31.3521 20.1147 31.7948 19.9757 31.9819 19.6171C32.169 19.2585 32.03 18.816 31.6713 18.6289C31.0759 18.3182 30.447 18.0722 29.7986 17.8939C29.8535 17.3994 29.8821 16.8989 29.8821 16.3937C29.8821 11.5382 27.3051 7.10095 22.9888 4.52419C22.611 4.29851 22.1416 4.29851 21.764 4.5241C17.4474 7.10095 14.8705 11.5382 14.8705 16.3937C14.8705 16.8569 14.8946 17.3161 14.9408 17.7704C14.3546 17.3482 13.728 16.9731 13.0627 16.6533C11.9612 16.1238 10.7905 15.762 9.58319 15.5778C9.18309 15.5166 8.80965 15.7915 8.74871 16.1914C8.68768 16.5913 8.96239 16.9648 9.36229 17.0259C10.4261 17.1882 11.4575 17.5069 12.428 17.9735C13.5361 18.5062 14.5253 19.2108 15.3738 20.0512C15.8786 21.8471 16.7516 23.5195 17.9425 24.9791C17.8821 25.2436 17.8333 25.5125 17.7955 25.7848L15.386 24.6266L13.8757 20.3201C13.7418 19.9384 13.3238 19.7374 12.9422 19.8714C12.5604 20.0052 12.3596 20.4231 12.4934 20.8049L13.5189 23.7292L10.4675 22.2623L9.45067 19.3632C9.31678 18.9814 8.89881 18.7804 8.51717 18.9144C8.13543 19.0483 7.93455 19.4662 8.06844 19.8479L8.60037 21.3648L6.36951 20.2925C6.00496 20.1174 5.56737 20.2708 5.39207 20.6352C5.21688 20.9998 5.3703 21.4374 5.73485 21.6127L7.9658 22.6851L6.44891 23.2171C6.06717 23.351 5.86629 23.7689 6.00008 24.1507C6.10584 24.4522 6.38885 24.6409 6.69129 24.6409C6.77166 24.6409 6.8535 24.6275 6.93367 24.5995L9.83289 23.5827L12.8844 25.0496L9.96004 26.0752C9.5783 26.2091 9.37743 26.6269 9.51131 27.0087C9.61707 27.3102 9.89998 27.4989 10.2024 27.4989C10.2828 27.4989 10.3646 27.4855 10.4448 27.4574L14.7514 25.947L16.1683 26.6282C14.3296 26.8826 12.6565 27.662 11.3056 28.81C10.0729 28.6824 8.85819 28.3454 7.70809 27.7925C4.2202 26.1159 1.90047 22.7448 1.47908 18.7544C2.90252 17.8444 4.51658 17.2426 6.15701 17.0114C6.5576 16.955 6.83651 16.5844 6.78006 16.1839C6.72362 15.7834 6.3534 15.5048 5.95252 15.5608C4.0491 15.8292 2.17908 16.5392 0.544612 17.6145C0.170588 17.8606 -0.0360524 18.2904 0.00535389 18.7364C0.430842 23.3107 3.07313 27.1897 7.07342 29.1127C8.0326 29.5737 9.03094 29.9009 10.0472 30.1009C8.72371 31.7406 7.93006 33.8247 7.93006 36.0911C7.93006 41.3592 12.2159 45.645 17.484 45.645C20.907 45.645 23.9147 43.8351 25.6021 41.1225C27.2895 43.8349 30.2962 45.6451 33.7188 45.6451C35.8626 45.6451 37.8887 44.951 39.5779 43.6376C39.8973 43.3893 39.9549 42.9292 39.7065 42.6098C39.4582 42.2905 38.9979 42.2331 38.6788 42.4812C37.249 43.5927 35.5339 44.1803 33.7188 44.1803C30.4865 44.1803 27.6929 42.2735 26.3986 39.5265C26.811 38.4599 27.0379 37.3016 27.0379 36.0912C27.0379 34.8807 26.8111 33.7225 26.3986 32.6558C27.6928 29.9089 30.4864 28.0021 33.7188 28.0021C38.1792 28.0021 41.8079 31.6308 41.8079 36.0912C41.8079 37.5029 41.439 38.8924 40.741 40.1093C40.5397 40.4601 40.6611 40.9077 41.0119 41.109C41.363 41.3102 41.8104 41.1889 42.0116 40.8381C42.8366 39.3997 43.2726 37.7583 43.2726 36.0912C43.2726 33.859 42.5028 31.8032 41.2151 30.175C42.2907 30.0503 43.3508 29.7486 44.3567 29.2651C47.5482 27.731 49.656 24.6376 49.9952 20.9905C50.0332 20.582 49.8441 20.1884 49.5015 19.9631ZM16.3352 16.3937C16.3352 12.111 18.5904 8.18708 22.3762 5.8657C26.1623 8.18699 28.4171 12.1107 28.4171 16.3937C28.4171 16.8043 28.3937 17.2109 28.3528 17.6137C27.9897 17.5718 27.6241 17.5499 27.2579 17.5499C25.7719 17.5499 24.3641 17.891 23.1086 18.4989V16.4645L25.5104 14.0628C25.7965 13.7767 25.7965 13.313 25.5104 13.027C25.2244 12.7409 24.7607 12.741 24.4747 13.027L23.1087 14.393V11.51C23.1087 11.1055 22.7807 10.7776 22.3763 10.7776C21.9718 10.7776 21.6438 11.1055 21.6438 11.51V14.393L20.2778 13.027C19.9918 12.741 19.528 12.741 19.2421 13.027C18.956 13.3131 18.956 13.7768 19.2421 14.0628L21.6438 16.4645V19.3785C21.4525 19.5179 21.2666 19.6642 21.0863 19.8171L19.1219 17.8526C18.8359 17.5666 18.3722 17.5666 18.0861 17.8526C17.8001 18.1386 17.8001 18.6024 18.0861 18.8884L20.0441 20.8465C19.414 21.5719 18.8919 22.3931 18.5014 23.2847C17.106 21.2757 16.3352 18.8964 16.3352 16.3937ZM17.4838 44.1801C13.0234 44.1801 9.39471 40.5513 9.39471 36.091C9.39471 31.6306 13.0234 28.0019 17.4838 28.0019C21.9441 28.0019 25.5728 31.6306 25.5728 36.091C25.5728 40.5513 21.9441 44.1801 17.4838 44.1801ZM43.7221 27.9446C42.4951 28.5345 41.1727 28.8059 39.8497 28.77C39.1025 28.1432 38.2586 27.6287 37.3436 27.2521L38.2689 26.8073L41.5891 27.9717C41.6692 27.9998 41.7511 28.0132 41.8314 28.0132C42.1339 28.0132 42.4168 27.8244 42.5225 27.5229C42.6564 27.1412 42.4555 26.7233 42.0738 26.5894L40.1359 25.9097L42.1309 24.9507L44.3459 25.7275C44.4261 25.7556 44.5079 25.769 44.5883 25.769C44.8907 25.769 45.1736 25.5802 45.2794 25.2788C45.4133 24.897 45.2123 24.4792 44.8307 24.3453L43.9978 24.0532L45.4073 23.3757C45.7719 23.2004 45.9254 22.7628 45.7502 22.3982C45.5748 22.0336 45.1368 21.8803 44.7727 22.0554L43.3633 22.733L43.6553 21.9004C43.7891 21.5186 43.5882 21.1007 43.2065 20.9668C42.8245 20.8326 42.4069 21.0339 42.2729 21.4155L41.4961 23.6305L39.5011 24.5895L40.1806 22.6516C40.3145 22.2699 40.1136 21.852 39.7319 21.718C39.35 21.5844 38.9322 21.7852 38.7983 22.1669L37.634 25.487L36.7361 25.9185C36.662 25.3271 36.5332 24.7455 36.3517 24.181C37.1936 22.5961 38.5027 21.3107 40.1517 20.518C42.8126 19.2389 45.9223 19.4479 48.5138 21.0696C48.1621 24.1062 46.3829 26.6655 43.7221 27.9446Z" fill="#132146"/>
<path d="M24.1055 22.2996C24.1055 23.5231 25.5084 24.4815 27.2994 24.4815C29.0903 24.4815 30.4933 23.5231 30.4933 22.2996C30.4933 21.076 29.0903 20.1176 27.2994 20.1176C25.5083 20.1176 24.1055 21.0761 24.1055 22.2996ZM29.0283 22.2996C29.0283 22.5458 28.355 23.0167 27.2993 23.0167C26.2437 23.0167 25.5702 22.5458 25.5702 22.2996C25.5702 22.0534 26.2437 21.5825 27.2993 21.5825C28.355 21.5825 29.0283 22.0534 29.0283 22.2996Z" fill="#132146"/>
<path d="M30.2065 33.8291C30.2065 36.3111 32.2258 38.3304 34.7078 38.3304C37.1898 38.3304 39.209 36.311 39.209 33.8291C39.209 31.3472 37.1898 29.3279 34.7077 29.3279C32.2257 29.3279 30.2065 31.3471 30.2065 33.8291ZM37.7441 33.8291C37.7441 35.5034 36.382 36.8655 34.7077 36.8655C33.0334 36.8655 31.6713 35.5034 31.6713 33.8291C31.6713 32.1548 33.0334 30.7928 34.7077 30.7928C36.382 30.7928 37.7441 32.1548 37.7441 33.8291Z" fill="#132146"/>
<path d="M33.9753 32.5353V32.9569L33.5728 32.8267C33.1884 32.7024 32.775 32.9132 32.6506 33.2983C32.5261 33.6832 32.7372 34.0961 33.1221 34.2206L33.5228 34.3502L33.2743 34.6929C33.0368 35.0204 33.1097 35.4783 33.4371 35.7158C33.567 35.81 33.7175 35.8553 33.8665 35.8553C34.0932 35.8553 34.3167 35.7504 34.46 35.5528L34.7077 35.2111L34.9556 35.5528C35.0989 35.7503 35.3224 35.8552 35.5491 35.8552C35.6981 35.8552 35.8486 35.8099 35.9784 35.7157C36.306 35.4782 36.3788 35.0202 36.1413 34.6927L35.8928 34.3501L36.2934 34.2205C36.6783 34.096 36.8895 33.6831 36.7649 33.2982C36.6405 32.9133 36.2274 32.7021 35.8427 32.8266L35.4402 32.9568V32.5352C35.4402 32.1307 35.1123 31.8028 34.7077 31.8028C34.3032 31.8028 33.9753 32.1308 33.9753 32.5353Z" fill="#132146"/>
<path d="M15.8204 33.7009C13.3383 33.7009 11.3191 35.7201 11.3191 38.2021C11.3191 40.6842 13.3383 42.7034 15.8204 42.7034C18.3024 42.7034 20.3216 40.6842 20.3216 38.2021C20.3216 35.7201 18.3024 33.7009 15.8204 33.7009ZM15.8204 41.2386C14.146 41.2386 12.7839 39.8765 12.7839 38.2021C12.7839 36.5278 14.146 35.1657 15.8204 35.1657C17.4947 35.1657 18.8568 36.5278 18.8568 38.2021C18.8568 39.8765 17.4947 41.2386 15.8204 41.2386Z" fill="#132146"/>
<path d="M16.9552 37.1998L16.5527 37.33V36.9084C16.5527 36.5039 16.2247 36.176 15.8202 36.176C15.4157 36.176 15.0878 36.5039 15.0878 36.9084V37.33L14.6853 37.1998C14.3003 37.0752 13.8875 37.2865 13.763 37.6714C13.6386 38.0562 13.8496 38.4691 14.2346 38.5936L14.6352 38.7232L14.3866 39.0659C14.1491 39.3933 14.2221 39.8514 14.5495 40.0889C14.6794 40.1831 14.8299 40.2284 14.9789 40.2284C15.2056 40.2284 15.4292 40.1235 15.5725 39.926L15.8203 39.5843L16.0682 39.926C16.2114 40.1235 16.435 40.2284 16.6617 40.2284C16.8108 40.2284 16.9613 40.1831 17.0911 40.0889C17.4186 39.8514 17.4915 39.3933 17.254 39.0659L17.0055 38.7232L17.4061 38.5936C17.7909 38.4691 18.0021 38.0562 17.8777 37.6714C17.753 37.2865 17.3402 37.0752 16.9552 37.1998Z" fill="#132146"/>
</svg>
